<svg xmlns="http://www.w3.org/2000/svg" viewBox="0 0 210.414 210.414" width="512" height="512">
  <g fill="#FFF">
    <path d="M105.207 0C66.532 0 35.07 31.45 35.07 70.104v70.21c0 38.653 31.462 70.1 70.137 70.1s70.138-31.446 70.138-70.1v-70.21C175.345 31.45 143.88 0 105.207 0zm62.345 140.314c0 34.357-27.968 62.307-62.345 62.307-34.377 0-62.345-27.95-62.345-62.306v-70.21c0-34.357 27.968-62.31 62.345-62.31 34.377 0 62.345 27.952 62.345 62.31v70.21z"/>
    <path d="M105.207 23.38c-2.152 0-3.897 1.742-3.897 3.896v35.286c0 2.154 1.745 3.897 3.897 3.897 2.152 0 3.897-1.744 3.897-3.898V27.276c0-2.154-1.745-3.897-3.897-3.897z"/>
  </g>
</svg>
